<svg width="500" height="100" xmlns="http://www.w3.org/2000/svg"><path d="M934.4 115.2 198.4 115.2 198.4 1024 704 1024l0 0 230.4 0L934.4 115.2 934.4 115.2 934.4 115.2zM147.2 57.6l691.2 0L838.4 0 89.6 0l0 896 64 0L153.6 57.6 147.2 57.6zM281.6 224l460.8 0 0 76.8L281.6 300.8 281.6 224 281.6 224 281.6 224zM288 377.6l460.8 0 0 76.8L288 454.4 288 377.6 288 377.6 288 377.6zM288 531.2l460.8 0 0 76.8L288 608 288 531.2 288 531.2 288 531.2zM288 684.8l460.8 0 0 76.8L288 761.6 288 684.8 288 684.8 288 684.8z" /></svg>