<?xml version="1.0" standalone="no"?><!DOCTYPE svg PUBLIC "-//W3C//DTD SVG 1.1//EN" "http://www.w3.org/Graphics/SVG/1.1/DTD/svg11.dtd"><svg class="icon" width="200px" height="200.00px" viewBox="0 0 1024 1024" version="1.1" xmlns="http://www.w3.org/2000/svg"><path fill="#333333" d="M855.3 64.7H293L66.2 375.3v480c0 57.3 46.4 103.7 103.7 103.7h685.4c57.3 0 103.7-46.4 103.7-103.7V168.5c0-57.3-46.4-103.8-103.7-103.8zM237.9 350.9l-144.8 23L299.7 77.5l24.5 154.7c8.9 56.6-29.7 109.8-86.3 118.7zM319 481c0-17.7 14.3-32 32-32h257c17.7 0 32 14.3 32 32s-14.3 32-32 32H351c-17.7 0-32-14.3-32-32z m449 191c0 17.7-14.3 32-32 32H352c-17.7 0-32-14.3-32-32s14.3-32 32-32h384c17.7 0 32 14.3 32 32z"  /></svg>